{"title":"Lucia.De.B.2014.AVI.BRRip.720p.DivX.NLaudio.{Th3Sp3cialist}","uid":10937795,"size":2297084494,"categoryP":"video","categoryS":"hd___movies","magnet":"?xt=urn:btih:247a24c7b1aafde472b1161f6a266f33aa4cd808&amp;dn=Lucia.De.B.2014.AVI.BRRip.720p.DivX.NLaudio.%7BTh3Sp3cialist%7D&amp;tr=udp%3A%2F%2Ftracker.openbittorrent.com%3A80&amp;tr=udp%3A%2F%2Fopen.demonii.com%3A1337&amp;tr=udp%3A%2F%2Ftracker.coppersurfer.tk%3A6969&amp;tr=udp%3A%2F%2Fexodus.desync.com%3A6969","seeders":0,"leechers":1,"uploader":"HOLLANDmovies","files":-1,"time":1409451785,"description":"LUCIA DE B. (DivX 720p) \n\nINFO\n\nLucia de B. (2014)\n97 min - Drama | Thriller\n\nA psychological thriller, based on one of the most controversial court cases in the Netherlands. Lucia, a nurse, is sentenced to life imprisonment for allegedly having killed at least seven babies and elderly people.\n\nDirector: Paula van der Oest\nWriters: Moniek Kramer, Tijs van Marle\nStars: Barry Atsma, Amanda Ooms, Marwan Kenzari \n\nGENERAL:\n\nComplete name : Lucia.De.B.2014.AVI.BRRip.720p.DivX.NLaudio.{Th3Sp3cialist}.avi\nFormat : AVI\nFormat/Info : Audio Video Interleave\nFormat profile : OpenDML\nFile size : 2.12 GiB\nDuration : 1h 36mn\nOverall bit rate : 3 134 Kbps\n\nVideo\nID : 0\nOriginal Source : Lucia de B.(2014) 1080p WEB-DL NL Audio SAM TBS\nFormat : xvid\nCodec ID : xvid\nDuration : 1h 36mn\nBit rate : 2 801 Kbps\nWidth : 1 280 pixels\nHeight : 720 pixels\nDisplay aspect ratio : 16:9\nFrame rate : 24.000 fps\nBits/(Pixel*Frame) : 0.127\nStream size : 1.89 GiB (89%)\n\nAudio\nID : 1\nFormat : MPEG Audio\nFormat version : Version 1\nFormat profile : Layer 3\nMode : Joint stereo\nMode extension : MS Stereo\nCodec ID : 55\nCodec ID/Hint : MP3\nDuration : 1h 36mn\nBit rate mode : Constant\nBit rate : 320 Kbps\nChannel(s) : 2 channels\nSampling rate : 48.0 KHz\nCompression mode : Lossy\nStream size : 222 MiB (10%)\nAlignment : Aligned on interleaves\nInterleave, duration : 24 ms (0.58 video frame)\n &lt;a href=&quot;\nhttp://bayimg.com/MAANMAagb&quot; rel=&quot;nofollow&quot; target=&quot;_NEW&quot;&gt;\nhttp://bayimg.com/MAANMAagb&lt;/a&gt; &lt;a href=&quot;\nhttp://bayimg.com/maanOAAgb&quot; rel=&quot;nofollow&quot; target=&quot;_NEW&quot;&gt;\nhttp://bayimg.com/maanOAAgb&lt;/a&gt; &lt;a href=&quot;\nhttp://bayimg.com/NaANAaaGb&quot; rel=&quot;nofollow&quot; target=&quot;_NEW&quot;&gt;\nhttp://bayimg.com/NaANAaaGb&lt;/a&gt;","torrent":{"xt":"urn:btih:247a24c7b1aafde472b1161f6a266f33aa4cd808","amp;dn":"Lucia.De.B.2014.AVI.BRRip.720p.DivX.NLaudio.%7BTh3Sp3cialist%7D","amp;tr":["udp%3A%2F%2Ftracker.openbittorrent.com%3A80","udp%3A%2F%2Fopen.demonii.com%3A1337","udp%3A%2F%2Ftracker.coppersurfer.tk%3A6969","udp%3A%2F%2Fexodus.desync.com%3A6969"],"infoHash":"247a24c7b1aafde472b1161f6a266f33aa4cd808","infoHashBuffer":{"type":"Buffer","data":[36,122,36,199,177,170,253,228,114,177,22,31,106,38,111,51,170,76,216,8]},"announce":[],"urlList":[]}}